<svg xmlns="http://www.w3.org/2000/svg" width="156.145" height="342.306" viewBox="0 0 156.145 342.306">
  <g id="Group_4499" data-name="Group 4499" opacity="0.14">
    <circle id="Ellipse_4" data-name="Ellipse 4" cx="5.148" cy="5.148" r="5.148" transform="translate(156.145) rotate(90)" fill="#ccc"/>
    <circle id="Ellipse_4-2" data-name="Ellipse 4" cx="5.148" cy="5.148" r="5.148" transform="translate(156.145 29.17) rotate(90)" fill="#ccc"/>
    <circle id="Ellipse_4-3" data-name="Ellipse 4" cx="5.148" cy="5.148" r="5.148" transform="translate(156.145 58.34) rotate(90)" fill="#ccc"/>
    <circle id="Ellipse_4-4" data-name="Ellipse 4" cx="5.148" cy="5.148" r="5.148" transform="translate(156.145 83.003) rotate(90)" fill="#ccc"/>
    <circle id="Ellipse_4-5" data-name="Ellipse 4" cx="5.148" cy="5.148" r="5.148" transform="translate(156.145 110.67) rotate(90)" fill="#ccc"/>
    <circle id="Ellipse_4-6" data-name="Ellipse 4" cx="5.148" cy="5.148" r="5.148" transform="translate(156.145 138.338) rotate(90)" fill="#ccc"/>
    <circle id="Ellipse_4-7" data-name="Ellipse 4" cx="5.148" cy="5.148" r="5.148" transform="translate(156.145 166.005) rotate(90)" fill="#ccc"/>
    <circle id="Ellipse_4-8" data-name="Ellipse 4" cx="5.148" cy="5.148" r="5.148" transform="translate(156.145 193.673) rotate(90)" fill="#ccc"/>
    <circle id="Ellipse_4-9" data-name="Ellipse 4" cx="5.148" cy="5.148" r="5.148" transform="translate(156.145 221.341) rotate(90)" fill="#ccc"/>
    <circle id="Ellipse_4-10" data-name="Ellipse 4" cx="5.148" cy="5.148" r="5.148" transform="translate(156.145 249.008) rotate(90)" fill="#ccc"/>
    <circle id="Ellipse_4-11" data-name="Ellipse 4" cx="5.148" cy="5.148" r="5.148" transform="translate(156.145 273.671) rotate(90)" fill="#ccc"/>
    <circle id="Ellipse_4-12" data-name="Ellipse 4" cx="5.148" cy="5.148" r="5.148" transform="translate(156.145 302.841) rotate(90)" fill="#ccc"/>
    <circle id="Ellipse_4-13" data-name="Ellipse 4" cx="5.148" cy="5.148" r="5.148" transform="translate(156.145 332.011) rotate(90)" fill="#ccc"/>
    <circle id="Ellipse_4-14" data-name="Ellipse 4" cx="5.148" cy="5.148" r="5.148" transform="translate(39.465) rotate(90)" fill="#ccc"/>
    <circle id="Ellipse_4-15" data-name="Ellipse 4" cx="5.148" cy="5.148" r="5.148" transform="translate(39.465 29.17) rotate(90)" fill="#ccc"/>
    <circle id="Ellipse_4-16" data-name="Ellipse 4" cx="5.148" cy="5.148" r="5.148" transform="translate(39.465 58.34) rotate(90)" fill="#ccc"/>
    <circle id="Ellipse_4-17" data-name="Ellipse 4" cx="5.148" cy="5.148" r="5.148" transform="translate(39.465 83.003) rotate(90)" fill="#ccc"/>
    <circle id="Ellipse_4-18" data-name="Ellipse 4" cx="5.148" cy="5.148" r="5.148" transform="translate(39.465 110.67) rotate(90)" fill="#ccc"/>
    <circle id="Ellipse_4-19" data-name="Ellipse 4" cx="5.148" cy="5.148" r="5.148" transform="translate(39.465 138.338) rotate(90)" fill="#ccc"/>
    <circle id="Ellipse_4-20" data-name="Ellipse 4" cx="5.148" cy="5.148" r="5.148" transform="translate(39.465 166.005) rotate(90)" fill="#ccc"/>
    <circle id="Ellipse_4-21" data-name="Ellipse 4" cx="5.148" cy="5.148" r="5.148" transform="translate(126.975) rotate(90)" fill="#ccc"/>
    <circle id="Ellipse_4-22" data-name="Ellipse 4" cx="5.148" cy="5.148" r="5.148" transform="translate(126.975 29.17) rotate(90)" fill="#ccc"/>
    <circle id="Ellipse_4-23" data-name="Ellipse 4" cx="5.148" cy="5.148" r="5.148" transform="translate(126.975 58.34) rotate(90)" fill="#ccc"/>
    <circle id="Ellipse_4-24" data-name="Ellipse 4" cx="5.148" cy="5.148" r="5.148" transform="translate(126.975 83.003) rotate(90)" fill="#ccc"/>
    <circle id="Ellipse_4-25" data-name="Ellipse 4" cx="5.148" cy="5.148" r="5.148" transform="translate(126.975 110.67) rotate(90)" fill="#ccc"/>
    <circle id="Ellipse_4-26" data-name="Ellipse 4" cx="5.148" cy="5.148" r="5.148" transform="translate(126.975 138.338) rotate(90)" fill="#ccc"/>
    <circle id="Ellipse_4-27" data-name="Ellipse 4" cx="5.148" cy="5.148" r="5.148" transform="translate(126.975 166.005) rotate(90)" fill="#ccc"/>
    <circle id="Ellipse_4-28" data-name="Ellipse 4" cx="5.148" cy="5.148" r="5.148" transform="translate(126.975 193.673) rotate(90)" fill="#ccc"/>
    <circle id="Ellipse_4-29" data-name="Ellipse 4" cx="5.148" cy="5.148" r="5.148" transform="translate(126.975 221.341) rotate(90)" fill="#ccc"/>
    <circle id="Ellipse_4-30" data-name="Ellipse 4" cx="5.148" cy="5.148" r="5.148" transform="translate(126.975 249.008) rotate(90)" fill="#ccc"/>
    <circle id="Ellipse_4-31" data-name="Ellipse 4" cx="5.148" cy="5.148" r="5.148" transform="translate(126.975 273.671) rotate(90)" fill="#ccc"/>
    <circle id="Ellipse_4-32" data-name="Ellipse 4" cx="5.148" cy="5.148" r="5.148" transform="translate(126.975 302.841) rotate(90)" fill="#ccc"/>
    <circle id="Ellipse_4-33" data-name="Ellipse 4" cx="5.148" cy="5.148" r="5.148" transform="translate(126.975 332.011) rotate(90)" fill="#ccc"/>
    <circle id="Ellipse_4-34" data-name="Ellipse 4" cx="5.148" cy="5.148" r="5.148" transform="translate(10.295) rotate(90)" fill="#ccc"/>
    <circle id="Ellipse_4-35" data-name="Ellipse 4" cx="5.148" cy="5.148" r="5.148" transform="translate(10.295 29.17) rotate(90)" fill="#ccc"/>
    <circle id="Ellipse_4-36" data-name="Ellipse 4" cx="5.148" cy="5.148" r="5.148" transform="translate(10.295 58.34) rotate(90)" fill="#ccc"/>
    <circle id="Ellipse_4-37" data-name="Ellipse 4" cx="5.148" cy="5.148" r="5.148" transform="translate(10.295 83.003) rotate(90)" fill="#ccc"/>
    <circle id="Ellipse_4-38" data-name="Ellipse 4" cx="5.148" cy="5.148" r="5.148" transform="translate(10.295 110.67) rotate(90)" fill="#ccc"/>
    <circle id="Ellipse_4-39" data-name="Ellipse 4" cx="5.148" cy="5.148" r="5.148" transform="translate(10.295 138.338) rotate(90)" fill="#ccc"/>
    <circle id="Ellipse_4-40" data-name="Ellipse 4" cx="5.148" cy="5.148" r="5.148" transform="translate(10.295 166.005) rotate(90)" fill="#ccc"/>
    <circle id="Ellipse_4-41" data-name="Ellipse 4" cx="5.148" cy="5.148" r="5.148" transform="translate(97.805) rotate(90)" fill="#ccc"/>
    <circle id="Ellipse_4-42" data-name="Ellipse 4" cx="5.148" cy="5.148" r="5.148" transform="translate(97.805 29.17) rotate(90)" fill="#ccc"/>
    <circle id="Ellipse_4-43" data-name="Ellipse 4" cx="5.148" cy="5.148" r="5.148" transform="translate(97.805 58.34) rotate(90)" fill="#ccc"/>
    <circle id="Ellipse_4-44" data-name="Ellipse 4" cx="5.148" cy="5.148" r="5.148" transform="translate(97.805 83.003) rotate(90)" fill="#ccc"/>
    <circle id="Ellipse_4-45" data-name="Ellipse 4" cx="5.148" cy="5.148" r="5.148" transform="translate(97.805 110.67) rotate(90)" fill="#ccc"/>
    <circle id="Ellipse_4-46" data-name="Ellipse 4" cx="5.148" cy="5.148" r="5.148" transform="translate(97.805 138.338) rotate(90)" fill="#ccc"/>
    <circle id="Ellipse_4-47" data-name="Ellipse 4" cx="5.148" cy="5.148" r="5.148" transform="translate(97.805 166.005) rotate(90)" fill="#ccc"/>
    <circle id="Ellipse_4-48" data-name="Ellipse 4" cx="5.148" cy="5.148" r="5.148" transform="translate(97.805 193.673) rotate(90)" fill="#ccc"/>
    <circle id="Ellipse_4-49" data-name="Ellipse 4" cx="5.148" cy="5.148" r="5.148" transform="translate(97.805 221.341) rotate(90)" fill="#ccc"/>
    <circle id="Ellipse_4-50" data-name="Ellipse 4" cx="5.148" cy="5.148" r="5.148" transform="translate(97.805 249.008) rotate(90)" fill="#ccc"/>
    <circle id="Ellipse_4-51" data-name="Ellipse 4" cx="5.148" cy="5.148" r="5.148" transform="translate(97.805 273.671) rotate(90)" fill="#ccc"/>
    <circle id="Ellipse_4-52" data-name="Ellipse 4" cx="5.148" cy="5.148" r="5.148" transform="translate(97.805 302.841) rotate(90)" fill="#ccc"/>
    <circle id="Ellipse_4-53" data-name="Ellipse 4" cx="5.148" cy="5.148" r="5.148" transform="translate(97.805 332.011) rotate(90)" fill="#ccc"/>
    <circle id="Ellipse_4-54" data-name="Ellipse 4" cx="5.148" cy="5.148" r="5.148" transform="translate(39.465 193.673) rotate(90)" fill="#ccc"/>
    <circle id="Ellipse_4-55" data-name="Ellipse 4" cx="5.148" cy="5.148" r="5.148" transform="translate(39.465 221.341) rotate(90)" fill="#ccc"/>
    <circle id="Ellipse_4-56" data-name="Ellipse 4" cx="5.148" cy="5.148" r="5.148" transform="translate(39.465 249.008) rotate(90)" fill="#ccc"/>
    <circle id="Ellipse_4-57" data-name="Ellipse 4" cx="5.148" cy="5.148" r="5.148" transform="translate(39.465 273.671) rotate(90)" fill="#ccc"/>
    <circle id="Ellipse_4-58" data-name="Ellipse 4" cx="5.148" cy="5.148" r="5.148" transform="translate(39.465 302.841) rotate(90)" fill="#ccc"/>
    <circle id="Ellipse_4-59" data-name="Ellipse 4" cx="5.148" cy="5.148" r="5.148" transform="translate(39.465 332.011) rotate(90)" fill="#ccc"/>
    <circle id="Ellipse_4-60" data-name="Ellipse 4" cx="5.148" cy="5.148" r="5.148" transform="translate(68.635) rotate(90)" fill="#ccc"/>
    <circle id="Ellipse_4-61" data-name="Ellipse 4" cx="5.148" cy="5.148" r="5.148" transform="translate(68.635 29.17) rotate(90)" fill="#ccc"/>
    <circle id="Ellipse_4-62" data-name="Ellipse 4" cx="5.148" cy="5.148" r="5.148" transform="translate(68.635 58.34) rotate(90)" fill="#ccc"/>
    <circle id="Ellipse_4-63" data-name="Ellipse 4" cx="5.148" cy="5.148" r="5.148" transform="translate(68.635 83.003) rotate(90)" fill="#ccc"/>
    <circle id="Ellipse_4-64" data-name="Ellipse 4" cx="5.148" cy="5.148" r="5.148" transform="translate(68.635 110.67) rotate(90)" fill="#ccc"/>
    <circle id="Ellipse_4-65" data-name="Ellipse 4" cx="5.148" cy="5.148" r="5.148" transform="translate(68.635 138.338) rotate(90)" fill="#ccc"/>
    <circle id="Ellipse_4-66" data-name="Ellipse 4" cx="5.148" cy="5.148" r="5.148" transform="translate(68.635 166.005) rotate(90)" fill="#ccc"/>
    <circle id="Ellipse_4-67" data-name="Ellipse 4" cx="5.148" cy="5.148" r="5.148" transform="translate(68.635 193.673) rotate(90)" fill="#ccc"/>
    <circle id="Ellipse_4-68" data-name="Ellipse 4" cx="5.148" cy="5.148" r="5.148" transform="translate(68.635 221.341) rotate(90)" fill="#ccc"/>
    <circle id="Ellipse_4-69" data-name="Ellipse 4" cx="5.148" cy="5.148" r="5.148" transform="translate(68.635 249.008) rotate(90)" fill="#ccc"/>
    <circle id="Ellipse_4-70" data-name="Ellipse 4" cx="5.148" cy="5.148" r="5.148" transform="translate(68.635 273.671) rotate(90)" fill="#ccc"/>
    <circle id="Ellipse_4-71" data-name="Ellipse 4" cx="5.148" cy="5.148" r="5.148" transform="translate(68.635 302.841) rotate(90)" fill="#ccc"/>
    <circle id="Ellipse_4-72" data-name="Ellipse 4" cx="5.148" cy="5.148" r="5.148" transform="translate(68.635 332.011) rotate(90)" fill="#ccc"/>
    <circle id="Ellipse_4-73" data-name="Ellipse 4" cx="5.148" cy="5.148" r="5.148" transform="translate(10.295 193.673) rotate(90)" fill="#ccc"/>
    <circle id="Ellipse_4-74" data-name="Ellipse 4" cx="5.148" cy="5.148" r="5.148" transform="translate(10.295 221.341) rotate(90)" fill="#ccc"/>
    <circle id="Ellipse_4-75" data-name="Ellipse 4" cx="5.148" cy="5.148" r="5.148" transform="translate(10.295 249.008) rotate(90)" fill="#ccc"/>
    <circle id="Ellipse_4-76" data-name="Ellipse 4" cx="5.148" cy="5.148" r="5.148" transform="translate(10.295 273.671) rotate(90)" fill="#ccc"/>
    <circle id="Ellipse_4-77" data-name="Ellipse 4" cx="5.148" cy="5.148" r="5.148" transform="translate(10.295 302.841) rotate(90)" fill="#ccc"/>
    <circle id="Ellipse_4-78" data-name="Ellipse 4" cx="5.148" cy="5.148" r="5.148" transform="translate(10.295 332.011) rotate(90)" fill="#ccc"/>
  </g>
</svg>
