<svg xmlns="http://www.w3.org/2000/svg" xmlns:xlink="http://www.w3.org/1999/xlink" width="318" height="491" viewBox="0 0 318 491">
  <defs>
    <linearGradient id="linear-gradient" y1="0.5" x2="1" y2="0.564" gradientUnits="objectBoundingBox">
      <stop offset="0" stop-color="#1487fd"/>
      <stop offset="1" stop-color="#42a0ff"/>
    </linearGradient>
    <clipPath id="clip-path">
      <rect id="Rectangle_1912" data-name="Rectangle 1912" width="318" height="491" transform="translate(898 298)" fill="url(#linear-gradient)"/>
    </clipPath>
    <linearGradient id="linear-gradient-2" x1="0.5" x2="0.5" y2="1" gradientUnits="objectBoundingBox">
      <stop offset="0" stop-color="#f6f6f6"/>
      <stop offset="1" stop-color="#ececec"/>
    </linearGradient>
    <linearGradient id="linear-gradient-3" x1="0.5" x2="0.5" y2="1" gradientUnits="objectBoundingBox">
      <stop offset="0" stop-color="#fff"/>
      <stop offset="1" stop-color="#f3f3f3"/>
    </linearGradient>
    <linearGradient id="linear-gradient-4" x1="0.5" x2="0.5" y2="1" gradientUnits="objectBoundingBox">
      <stop offset="0" stop-color="#f3f3f3"/>
      <stop offset="1" stop-color="#fff"/>
    </linearGradient>
  </defs>
  <g id="Mask_Group_1" data-name="Mask Group 1" transform="translate(-898 -298)" clip-path="url(#clip-path)">
    <g id="Group_1" data-name="Group 1" transform="translate(913 315.372)">
      <g id="iPhone" transform="translate(0 0)">
        <path id="Bezel" d="M33.332,0h221.98c18.409,0,33.332,12.962,33.332,28.952v462c0,15.99-14.923,28.952-33.332,28.952H33.332C14.923,519.908,0,506.946,0,490.956v-462C0,12.962,14.923,0,33.332,0Z" transform="translate(0 0)" fill="url(#linear-gradient-2)"/>
        <path id="Glass" d="M31.518,0H254.29c17.407,0,31.518,12.193,31.518,27.234V490.21c0,15.041-14.111,27.234-31.518,27.234H31.518C14.111,517.444,0,505.251,0,490.21V27.234C0,12.193,14.111,0,31.518,0Z" transform="translate(1.418 1.232)" fill="url(#linear-gradient-3)"/>
        <g id="Camera" transform="translate(175.645 10.669)">
          <ellipse id="Ellipse_7" data-name="Ellipse 7" cx="4.343" cy="4.343" rx="4.343" ry="4.343" transform="translate(0 0)" fill="url(#linear-gradient-4)"/>
          <circle id="Ellipse_8" data-name="Ellipse 8" cx="3.909" cy="3.909" r="3.909" transform="translate(0 0)" fill="url(#linear-gradient-3)"/>
          <ellipse id="Ellipse_10" data-name="Ellipse 10" cx="3.04" cy="3.04" rx="3.04" ry="3.04" transform="translate(0.869 0.869)" fill="#f3f3f3"/>
          <circle id="Ellipse_9" data-name="Ellipse 9" cx="0.869" cy="0.869" r="0.869" transform="translate(3.474 0.869)" fill="#fff"/>
        </g>
        <path id="Ear_Piece" data-name="Ear Piece" d="M2.982.5H41.988A2.336,2.336,0,0,1,44.47,2.656a2.336,2.336,0,0,1-2.482,2.156H2.982A2.336,2.336,0,0,1,.5,2.656,2.336,2.336,0,0,1,2.982.5Z" transform="translate(121.837 12.744)" fill="#f3f3f3" stroke="#f9f8f8" stroke-width="1"/>
        <path id="Screen" d="M239,500.2H26.949C12.089,500.2,0,489.7,0,476.788V23.409C0,10.5,12.089,0,26.949,0H55.5a4.55,4.55,0,0,1,3.709,3.185c.117.446.239,1.029.38,1.7.272,1.3.609,2.91,1.111,4.539.649,2.106,3.514,8.986,13.141,9.072,3.631.033,26.271.039,44.625.039,33.762,0,72.5-.023,74.314-.039,9.627-.086,12.492-6.966,13.141-9.072.5-1.632.84-3.245,1.112-4.542.142-.678.263-1.258.379-1.7A4.389,4.389,0,0,1,211.091,0H239c14.86,0,26.949,10.5,26.949,23.409V476.788C265.95,489.7,253.86,500.2,239,500.2Z" transform="translate(11.347 9.856)" fill="#e3e3e3"/>
        <path id="Image_Place_here" data-name="Image Place here" d="M239,500.2H26.949C12.089,500.2,0,489.7,0,476.788V23.409C0,10.5,12.089,0,26.949,0H55.5a4.55,4.55,0,0,1,3.709,3.185c.117.446.239,1.029.38,1.7.272,1.3.609,2.91,1.111,4.539.649,2.106,3.514,8.986,13.141,9.072,3.631.033,26.271.039,44.625.039,33.762,0,72.5-.023,74.314-.039,9.627-.086,12.492-6.966,13.141-9.072.5-1.632.84-3.245,1.112-4.542.142-.678.263-1.258.379-1.7A4.389,4.389,0,0,1,211.091,0H239c14.86,0,26.949,10.5,26.949,23.409V476.788C265.95,489.7,253.86,500.2,239,500.2Z" transform="translate(11.347 9.856)" fill="#e3e3e3"/>
        <path id="Home" d="M1.773,0h88.65A1.669,1.669,0,0,1,92.2,1.54a1.669,1.669,0,0,1-1.773,1.54H1.773A1.669,1.669,0,0,1,0,1.54,1.669,1.669,0,0,1,1.773,0Z" transform="translate(98.579 499.58)" fill="#e2e2e2"/>
      </g>
    </g>
  </g>
</svg>
